<svg width="143" height="142" viewBox="0 0 143 142" fill="none" xmlns="http://www.w3.org/2000/svg">
<path d="M142.916 71C142.916 110.212 110.923 142 71.4581 142C31.9929 142 0 110.212 0 71C0 31.7878 31.9929 0 71.4581 0C110.923 0 142.916 31.7878 142.916 71Z" fill="#5297C5" fill-opacity="0.2"/>
<path d="M115.042 85C107.655 85 109.296 77.6125 109.296 77.6125L77.2838 77.5211L38.7039 77.6125C38.7039 77.6125 40.3459 85 32.9583 85C25.5707 85 24.7498 73.4169 32.9586 70.9545C24.7498 68.4918 25.5712 57 32.9586 57C40.3459 57 38.7042 64.3876 38.7042 64.3876H77.2838H109.297C109.297 64.3876 107.655 57.0007 115.042 57.0007C122.43 57.0007 123.251 68.4918 115.042 70.9545C123.251 73.4169 122.43 85 115.042 85Z" fill="#449ECF" stroke="#449ECF" stroke-width="2" stroke-linecap="round" stroke-linejoin="round"/>
</svg>
