<svg width="143" height="142" viewBox="0 0 143 142" fill="none" xmlns="http://www.w3.org/2000/svg">
<path d="M142.916 71C142.916 110.212 110.923 142 71.4581 142C31.9929 142 0 110.212 0 71C0 31.7878 31.9929 0 71.4581 0C110.923 0 142.916 31.7878 142.916 71Z" fill="#5297C5" fill-opacity="0.2"/>
<path d="M99.6 78.5556C105.262 73.04 111 66.4289 111 57.7778C111 52.2672 108.798 46.9823 104.879 43.0857C100.959 39.1891 95.643 37 90.1 37C83.412 37 78.7 38.8889 73 44.5556C67.3 38.8889 62.588 37 55.9 37C50.357 37 45.041 39.1891 41.1215 43.0857C37.202 46.9823 35 52.2672 35 57.7778C35 66.4667 40.7 73.0778 46.4 78.5556L73 105L99.6 78.5556Z" fill="#449ECF" stroke="#449ECF" stroke-width="2" stroke-linecap="round" stroke-linejoin="round"/>
</svg>
